<svg xmlns="http://www.w3.org/2000/svg"><style>:root svg:not(:target){display:none}</style><svg viewBox="0 0 13 16" fill="none" id="address"><path d="M11.8 6.5c0 2.33-1.37 4.41-2.92 6.01a15.9 15.9 0 0 1-2.38 2.04c-.1-.06-.2-.14-.3-.22a15.9 15.9 0 0 1-2.09-1.82c-1.55-1.6-2.92-3.68-2.92-6.01a5.31 5.31 0 0 1 10.61 0Zm1.2 0c0 5.58-6.5 9.5-6.5 9.5s-6.5-3.92-6.5-9.5a6.5 6.5 0 1 1 13 0Zm-4.2 0a2.3 2.3 0 1 1-4.6 0 2.3 2.3 0 0 1 4.6 0Zm1.2 0a3.5 3.5 0 1 1-7 0 3.5 3.5 0 0 1 7 0Z" fill="#7859CF" fill-rule="evenodd"></path></svg><svg viewBox="0 0 11 20" fill="none" id="arrow-back"><path d="m9.71 0 1.29 1.32-8.44 8.68 8.44 8.67-1.29 1.33-9.71-10 9.71-10Z" fill="#7859CF" fill-rule="evenodd"></path></svg><svg viewBox="0 0 11 20" fill="none" id="arrow-next"><path d="m1.28 0-1.28 1.32 8.43 8.68-8.43 8.67 1.28 1.33 9.72-10-9.72-10Z" fill="#7859CF" fill-rule="evenodd"></path></svg><svg viewBox="0 0 20 16" fill="none" id="basket-plus"><path d="M13.67 13.52v-.02h1.35l-.03.21a2.67 2.67 0 0 1-2.64 2.29h-8.71a2.67 2.67 0 0 1-2.64-2.29l-.81-5.71-.19-1.34h4.55l-.22-2.68a3.68 3.68 0 0 1 7.28-.98h-1.37a2.35 2.35 0 0 0-4.58.87l.23 2.79h3.61v1.34h-3.45l.23 2.66h3.43l.02-.16h1.34l-.02.16h1.45v1.34h-1.56l-.22 2.66h1.63c.66 0 1.23-.49 1.32-1.14Zm-8.96-5.52h-3.18l.38 2.66h3.03l-.23-2.66Zm1.9 6.66-.22-2.66h3.21l-.22 2.66h-2.77Zm-1.56-2.66.22 2.66h-1.63c-.66 0-1.22-.49-1.32-1.14l-.22-1.52h2.95Zm10.75-2v-2.81h-2.8v-1.39h2.8v-2.8h1.4v2.8h2.8v1.39h-2.8v2.81h-1.4Z" fill="#FFF" fill-rule="evenodd"></path></svg><svg viewBox="0 0 16 16" fill="none" id="basket"><path d="m5.66 3.87.23 2.79h4.21l.23-2.79a2.34 2.34 0 0 0-2.33-2.54 2.34 2.34 0 0 0-2.34 2.54Zm5.78 2.79.22-2.68a3.67 3.67 0 1 0-7.33 0l.22 2.68h-4.55l.19 1.34.81 5.71a2.67 2.67 0 0 0 2.64 2.29h8.71c1.33 0 2.45-.98 2.64-2.29l.81-5.71.2-1.34h-4.56Zm-.11 1.34h-.05l-.23 2.66h3.03l.38-2.66h-3.13Zm-1.39 0h-3.89l.23 2.66h3.43l.23-2.66Zm-5.23 0h-3.18l.38 2.66h3.03l-.23-2.66Zm1.9 6.66-.22-2.66h3.21l-.22 2.66h-2.77Zm4.33-2.66-.22 2.66h1.63c.66 0 1.23-.49 1.32-1.14l.22-1.52h-2.95Zm-5.89 0 .22 2.66h-1.63c-.66 0-1.22-.49-1.32-1.14l-.22-1.52h2.95Z" fill="#333" fill-rule="evenodd"></path></svg><svg viewBox="0 0 16 12" fill="none" id="burger-menu"><path d="M0 0h16v1.5h-16v-1.5Zm0 5.25h16v1.5h-16v-1.5Zm16 5.25h-16v1.5h16v-1.5Z" clip-rule="evenodd" fill="#333" fill-rule="evenodd"></path></svg><svg viewBox="0 0 12 12" fill="none" id="cross"><path d="m5.02 6-5.02-5.03.97-.97 5.03 5.02 5.02-5.02.98.97-5.03 5.03 5.03 5.02-.98.98-5.02-5.03-5.03 5.03-.97-.98 5.02-5.02Z" fill="#333" fill-rule="evenodd"></path></svg><svg viewBox="0 0 52 56" fill="none" id="features-comfortable"><path d="M4 4h48l-4 44-20 8-20-8-4-44Z" fill="#F0EBFF"></path><path fill-rule="evenodd" clip-rule="evenodd" d="M1 0h-1l.1 1 3.9 43 20 8 20-8 3.9-43 .1-1h-47Zm.1 1 .36 4h45.08l.37-4h-45.81Zm40.8 5h-35.8l.1 1.13-.5.05-.5.04-.11-1.22h-3.54l3.39 37.3 19.06 7.62 19.06-7.62 3.39-37.3h-3.54l-.1 1.22-.5-.04-.5-.05.1-1.13Zm-35.8 5.62-.5.04.39 4.45.5-.05.5-.04-.4-4.45-.5.05Zm.78 8.88-.5.05.4 4.44.5-.04.5-.05-.4-4.44-.5.04Zm.8 8.89-.5.04.4 4.45.5-.05.49-.04-.4-4.45-.5.05Zm.79 8.88-.5.05.2 2.22 1.98.8.18-.46.2-.46-1.42-.58-.15-1.61-.5.04Zm5.82 4.23-.19.46 3.96 1.62.2-.47.18-.46-3.96-1.61-.19.46Zm7.92 3.23-.19.46 1.98.81 1.98-.8-.19-.47-.19-.46-1.6.65-1.6-.65-.19.46Zm7.54-1.62.19.47 3.96-1.62-.2-.46-.18-.46-3.96 1.61.19.46Zm7.92-3.23.18.47 1.98-.81.2-2.22-.5-.05-.5-.04-.14 1.61-1.41.58.19.46Zm2.26-7.05.5.05.4-4.45-.5-.04-.5-.05-.4 4.45.5.04Zm.8-8.88.49.04.4-4.44-.5-.05-.5-.04-.4 4.44.5.05Zm.78-8.89.5.05.4-4.45-.5-.04-.5-.05-.4 4.45.5.04Z" fill="#7859CF"></path></svg><svg viewBox="0 0 46 56" fill="none" id="features-eco"><path fill-rule="evenodd" clip-rule="evenodd" d="M38.7 22.12c.78-6.56 1.5-12.77 7.3-18.12-26.5 0-34.15 8.13-38 14-8.54 13.04-.91 25.67.71 28.09a808.17 808.17 0 0 0-4.71 9.47l.88.44c.64-1.27 1.3-2.6 1.98-4l2.65-5.32c2.6.87 14.45 4.19 21.99-4.68 5.66-6.66 6.45-13.44 7.2-19.88Z" fill="#F0EBFF"></path><path fill-rule="evenodd" clip-rule="evenodd" d="M5.23 41.05c3.96-7.8 8.46-15.96 13.04-21.05l.73.66c-4.57 5.08-9.07 13.3-13.03 21.12a26.2 26.2 0 0 0 7.12 1.22c4.38.12 9.66-.96 13.65-5.65 5.46-6.42 6.22-12.94 6.98-19.4l.02-.13c.68-5.81 1.38-11.64 5.87-16.8-11.79.23-19.48 2.16-24.67 4.68a23.8 23.8 0 0 0-10.1 8.85 22.6 22.6 0 0 0-2.94 18.88 28.93 28.93 0 0 0 3.33 7.63Zm-.52 1.04c-1.62-2.42-9.25-15.05-.71-28.09 3.78-5.76 11.23-13.7 36.55-14h1.45a22 22 0 0 0-1.02 1c-4.87 5.12-5.55 10.96-6.27 17.12-.76 6.44-1.55 13.22-7.21 19.88-7.54 8.87-19.4 5.55-21.99 4.68l-2.65 5.32c-.68 1.4-1.34 2.73-1.98 4l-.88-.44 1.97-3.96 2.74-5.51Z" fill="#7859CF"></path></svg><svg viewBox="0 0 42 56" fill="none" id="features-energy"><path fill-rule="evenodd" clip-rule="evenodd" d="m19.97 35.2 18.16-31.2-34.13 26.68 15.97 4.52Zm6.06-10.4-18.16 31.2 34.13-26.68-15.97-4.52Z" fill="#F0EBFF"></path><path fill-rule="evenodd" clip-rule="evenodd" d="m34.13 0-34.13 26.68 15.97 4.52-12.1 20.8 34.13-26.68-15.97-4.52 12.1-20.8Zm1.7 25.75-15.32-4.34 10.15-17.42-28.5 22.26 15.33 4.34-10.15 17.42 28.5-22.26Z" fill="#7859CF"></path></svg><svg viewBox="0 0 50 56" fill="none" id="features-speed"><path fill-rule="evenodd" clip-rule="evenodd" d="M23 4h8v3h-3v3.02c3.82.16 7.39 1.26 10.5 3.06 1.85-1.93 6.26.17 4.76 3.66l-.1-.1a23 23 0 1 1-32.43.1c-2.02-3.03 2.59-6.16 4.77-3.66 3.11-1.8 6.68-2.9 10.5-3.06v-3.02h-3v-3Z" fill="#F0EBFF"></path><path fill-rule="evenodd" clip-rule="evenodd" d="M26 1h-6v1h6v-1Zm-2 2h3v-3h-8v3h3v3.02a22.87 22.87 0 0 0-9.6 2.57l-.15-.17c-1.53-1.76-3.85-1.44-5.3-.4a4.14 4.14 0 0 0-1.6 2.26c-.26.96-.1 2.02.56 3.01l.12.19a23 23 0 1 0 33.99.05l.16-.4c.47-1.08.5-2.13.17-3.04-.32-.9-.95-1.6-1.68-2.06-1.41-.89-3.54-1.06-4.9.36l-.17.2a22.87 22.87 0 0 0-9.6-2.57v-3.02Zm-1 4c-3.86 0-7.49 1-10.64 2.74l-.36.2a22 22 0 1 0 22 0l-.36-.2a21.9 21.9 0 0 0-10.64-2.74Zm-11.5 2.08a23.08 23.08 0 0 0-4.76 3.66 2.98 2.98 0 0 1-.44-.98c-.55-2.31 2.31-4.31 4.35-3.34.3.15.6.37.85.66Zm23 0a23.08 23.08 0 0 1 4.76 3.66c.17-.4.26-.77.3-1.12.2-2.33-2.32-3.74-4.1-3.14-.36.12-.69.32-.96.6Zm-11.5 21.92a2 2 0 0 0 .86-3.8l-.91-.2a2 2 0 0 0 .05 4Zm-.64-4.93-1.34-4.94-.04-.14.05-.15 1.5-4.5.47-1.42.47 1.42 1.5 4.5.05.15-.04.14-1.34 4.94.37.1 7.55-13.42.88.5-7.55 13.42a3 3 0 1 1-2.53-.6Zm-.34-5.06.98 3.59.98-3.59-.98-2.93-.98 2.93Z" fill="#7859CF"></path></svg><svg viewBox="0 0 12 16" fill="none" id="logo-developer"><path d="m11.21 5.75-5.24-3.26-5.19 3.26v-4.35l5.22-.57 5.21.57v4.35Zm0 .57-2.09 1.3-3.14-1.97-.01.57 2.69 1.68-.46.29-2.22-1.39-.01.58 1.75 1.09-.41.29-.01.01-1.32-.82-.01.57.87.54-.88.56-5.17-3.24 5.18-3.27 5.24 3.21Zm0 5.45-5.21 3.26-5.22-3.26v-4.75l5.19 3.25.01.59-3.56-2.23-.01.57 3.58 2.27.01.6-3.58-2.24v.58l3.58 2.26 3.6-2.27v-2.45l1.61-1.01v4.83Zm-5.22-11.77-5.99.66v11.58l6 3.76 6-3.76v-11.58l-6.01-.66Z" fill="#BDBDBD"></path></svg><svg viewBox="0 0 38 50" fill="none" id="map-pin"><ellipse cx="19" cy="48.5" rx="8" ry="1.5" fill="#7859CF" fill-opacity=".25"></ellipse><path d="M38 20c0 15.04-19 24-19 24s-19-8.96-19-24c0-11.05 8.5-20 19-20 10.49 0 19 8.95 19 20Z" fill="#7859CF"></path><path d="M19 36c8.28 0 15-7.17 15-16 0-8.84-6.72-16-15-16-8.29 0-15 7.16-15 16 0 8.83 6.71 16 15 16Zm9.85-10.67a12.9 12.9 0 0 0 1.15-5.33c0-6.63-4.93-12-11-12-.85 0-1.68.1-2.47.3 3.8 1 6.59 4.36 6.59 8.36 0 3.11-1.74 6.15-3.44 8.67h9.17Zm-14.67-14.67a6.1 6.1 0 0 1 6.19 6c0 3.8-3.01 7.47-5.43 10.41l-.76.92h13.01c-2.01 2.46-4.94 4-8.19 4-6.08 0-11-5.37-11-12 0-3.66 1.61-9.33 6.18-9.33Z" fill="#FFF" fill-rule="evenodd"></path></svg><svg viewBox="0 0 20 20" fill="none" id="ok"><path d="M1.4 1.39c-1.4 1.42-1.4 3.68-1.4 8.21v.91c-.01 4.46-.01 6.7 1.4 8.09 1.41 1.4 3.67 1.4 8.19 1.4h.92c4.45 0 6.7 0 8.09-1.4 1.4-1.42 1.4-3.68 1.4-8.21v-.91c0-4.45 0-6.7-1.4-8.09-1.42-1.39-3.68-1.39-8.2-1.39h-.92c-4.45 0-6.7-.01-8.08 1.39Zm8.61 8.8a3.03 3.03 0 1 0 0-6.04 3.03 3.03 0 0 0 0 6.04Zm0-4.28c.69 0 1.26.56 1.26 1.25s-.57 1.26-1.26 1.26c-.68 0-1.25-.57-1.25-1.26a1.24 1.24 0 0 1 1.25-1.25Zm1.22 6.77a5.76 5.76 0 0 0 1.76-.73.88.88 0 0 0 .27-1.23.87.87 0 0 0-1.23-.27 3.85 3.85 0 0 1-4.08 0 .9.9 0 0 0-1.24.27c-.23.42-.1.96.31 1.21.55.35 1.14.58 1.76.73l-1.69 1.68a.9.9 0 0 0 0 1.26c.19.18.4.25.64.25s.45-.09.63-.25l1.67-1.67 1.67 1.67a.89.89 0 1 0 1.25-1.26l-1.72-1.66Z" fill="#BDBDBD" fill-rule="evenodd"></path></svg><svg viewBox="0 0 13 16" fill="none" id="phone"><path d="M1.47 1.49c-1.07.6-1.65 1.74-1.43 2.82l.36 1.78c.93 3.12 2.5 5.77 4.82 8.11l1.41 1.19c.86.72 2.17.81 3.24.21l2.23-1.25c.87-.49 1.16-1.54.62-2.26l-1.93-2.61c-.52-.7-1.59-.82-2.37-.26l-1.37.99a5.22 5.22 0 0 1-2.18-3.66l1.57-.66c.89-.38 1.32-1.34.96-2.12l-1.37-2.93c-.38-.81-1.46-1.09-2.33-.6l-2.23 1.25Zm-.19 2.52c-.12-.59.19-1.21.78-1.54l2.23-1.25c.22-.12.49-.05.58.15l1.37 2.93c.09.2-.02.44-.24.53l-2.43 1.03.01.41a6.27 6.27 0 0 0 3.07 5.16l.36.22 2.13-1.53c.2-.14.47-.11.6.07l1.93 2.61c.13.18.06.44-.16.56l-2.23 1.25c-.58.33-1.3.28-1.76-.11l-1.41-1.19a20.89 20.89 0 0 1-4.47-7.52l-.36-1.78Z" fill="#7859CF" fill-rule="evenodd"></path></svg><svg viewBox="0 0 22 22" fill="none" id="pinterest"><path d="M11 0a11 11 0 0 0-4.01 21.24c-.1-.87-.19-2.21.03-3.16l1.29-5.46s-.32-.66-.32-1.64c0-1.53.88-2.67 1.99-2.67.93 0 1.39.71 1.39 1.55 0 .94-.6 2.36-.91 3.66-.26 1.1.55 1.99 1.63 1.99 1.95 0 3.45-2.06 3.45-5.04 0-2.63-1.89-4.47-4.59-4.47a4.76 4.76 0 0 0-4.97 4.77c0 .95.37 1.96.82 2.51.09.11.1.21.08.32l-.31 1.24c-.05.21-.16.25-.37.15-1.37-.64-2.23-2.65-2.23-4.26 0-3.47 2.52-6.66 7.27-6.66 3.81 0 6.78 2.72 6.78 6.36 0 3.79-2.39 6.84-5.71 6.84-1.11 0-2.16-.58-2.52-1.26l-.68 2.61c-.25.96-.92 2.15-1.37 2.88a11 11 0 1 0 3.26-21.5Z" fill="#BDBDBD"></path></svg><svg viewBox="0 0 16 16" fill="none" id="user"><path d="M10.66 4a2.66 2.66 0 1 1-5.33 0 2.66 2.66 0 1 1 5.33 0Zm1.34 0a4 4 0 1 1-7.99-.01 4 4 0 0 1 7.99.01Zm-8.81 8.31a7.53 7.53 0 0 1 4.81-1.65c1.83 0 3.56.61 4.8 1.65a4.82 4.82 0 0 1 1.86 3.69h1.34c0-1.77-.85-3.47-2.35-4.72a8.86 8.86 0 0 0-5.65-1.95c-2.13 0-4.16.7-5.66 1.95a6.17 6.17 0 0 0-2.34 4.72h1.33c0-1.33.63-2.67 1.86-3.69Z" fill="#333" fill-rule="evenodd"></path></svg><svg viewBox="0 0 20 20" fill="none" id="vk"><path d="M1.4 1.4c-1.4 1.41-1.4 3.67-1.4 8.2v.79c0 4.53 0 6.79 1.4 8.2 1.41 1.41 3.67 1.41 8.19 1.41h.81c4.52 0 6.78 0 8.19-1.41 1.41-1.41 1.41-3.67 1.41-8.2v-.79c0-4.53 0-6.79-1.41-8.2-1.41-1.4-3.67-1.4-8.19-1.4h-.81c-4.52 0-6.78 0-8.19 1.4Zm1.97 4.68c.11 5.2 2.71 8.32 7.27 8.32h.26v-2.97a4.13 4.13 0 0 1 3.45 2.97h2.36a6.6 6.6 0 0 0-3.42-4.17 6.4 6.4 0 0 0 2.92-4.15h-2.15c-.46 1.65-1.85 3.15-3.16 3.29v-3.29h-2.15v5.77c-1.34-.34-3.02-1.95-3.1-5.77h-2.28Z" fill="#BDBDBD" fill-rule="evenodd"></path></svg></svg>