<svg viewBox="0 0 38 50" fill="none" xmlns="http://www.w3.org/2000/svg"><ellipse cx="19" cy="48.5" rx="8" ry="1.5" fill="#7859CF" fill-opacity=".25"/><path d="M38 20c0 15.04-19 24-19 24s-19-8.96-19-24c0-11.05 8.5-20 19-20 10.49 0 19 8.95 19 20Z" fill="#7859CF"/><path d="M19 36c8.28 0 15-7.17 15-16 0-8.84-6.72-16-15-16-8.29 0-15 7.16-15 16 0 8.83 6.71 16 15 16Zm9.85-10.67a12.9 12.9 0 0 0 1.15-5.33c0-6.63-4.93-12-11-12-.85 0-1.68.1-2.47.3 3.8 1 6.59 4.36 6.59 8.36 0 3.11-1.74 6.15-3.44 8.67h9.17Zm-14.67-14.67a6.1 6.1 0 0 1 6.19 6c0 3.8-3.01 7.47-5.43 10.41l-.76.92h13.01c-2.01 2.46-4.94 4-8.19 4-6.08 0-11-5.37-11-12 0-3.66 1.61-9.33 6.18-9.33Z" fill="#FFF" fill-rule="evenodd"/></svg>